<?xml version="1.0" encoding="UTF-8"?>
<svg id="Capa_2" data-name="Capa 2" xmlns="http://www.w3.org/2000/svg" viewBox="0 0 278.69 333.77">
  <defs>
    <style>
      .cls-1 {
        stroke-linejoin: round;
      }

      .cls-1, .cls-2 {
        fill: none;
        stroke: #1d1d1b;
        stroke-linecap: round;
        stroke-width: 2px;
      }

      .cls-2 {
        stroke-miterlimit: 10;
      }
    </style>
  </defs>
  <g id="Capa_1-2" data-name="Capa 1">
    <path class="cls-1" d="M118.48,240.55s9.24-2.54,16.52-7.06c7.28-4.52,16.21-3.88,20.51,1.62,4.3,5.49,9.92,7.11,9.92,7.11,0,0-13.89-2.91-20.84-2.26-6.95.65-19.5-1.34-26.12.6Z"/>
    <path class="cls-2" d="M137.52,219.96s8.72,4.67,15.68.63"/>
    <path class="cls-2" d="M125.46,250.45s17.09,12.39,33.74,5.55"/>
    <path class="cls-2" d="M135,202.7s-.07-.9,2.73-.24,4.29,3.42,4.29,3.42c0,0,6.36,5.62,12.05-1.55,0,0,1.57-1.76,4.03-.5"/>
    <path class="cls-2" d="M150.37,207.59s3.8-2.09,0-18.89c0,0-1.2-13.16-.83-16.24,0,0,1.16-37.94,23.94-37.8,0,0,42.37,1.28,48.69,5.51,0,0-54.64,1.66-56.73,2.99s5.55-8.5,8.04-8.5"/>
    <path class="cls-2" d="M131.85,205.1s-6.45-2.14-1.56-8.21"/>
    <path class="cls-2" d="M165.44,161.49s4.99-15.04,23.22-15.04,19.38,6.44,27.82,2.2c0,0-9.79,16.77-22.26,15.06s-21.11-4.79-28.78-2.23Z"/>
    <path class="cls-2" d="M126.25,161.49s-.08-15.56-17.71-19.3c-17.63-3.74-20.78,2.25-27.6-3.58,0,0,4.17,18.23,16.77,19.13,12.6.91,21.93-.3,28.54,3.75Z"/>
    <path class="cls-2" d="M68.05,109.94c.18,8.39-11.29,48.15,6.9,98.04,33.76,69.92,67.38,72.16,67.38,72.16,0,0,14.37,4.94,48.63-33.61,15.28-20,41.18-69.46,41.07-112"/>
    <path class="cls-2" d="M47.86,74.29s-13.46,111.42-8.23,154.04c5.23,42.62,8.23,88.98,8.23,88.98,0,0,17.2,1.5,21.69,6.73,0,0-2.24-48.24-5.98-59.27,0,0,10.09,33.84,17.38,43.56l7.29-5.98s-40.38-83.5-20.19-192.42l28.41,15.95,2.99-56.83,7.28,56.83,25.78,6.63,16.17-60.47,2.01,62.48,25.02-5.65,6.6-56.08,8.63,55.33,20.66,6.4,4.86-59.49,6.35,57.48,9.72-8.13s-6.73,132.1-8.97,144.19-11.96,35.27-11.96,35.27h13.46l7.48-25.42-4.49,45.61h21.69l4.49-235.54C263.81,4.25,80.47-50.38,47.86,74.29Z"/>
    <path class="cls-2" d="M47.86,74.29s-16.37,190.3-22.31,234.53"/>
    <path class="cls-2" d="M254.6,80.03s13.6,194.92,18.58,213.36,4.49,39.38,4.49,39.38"/>
    <path class="cls-2" d="M75.03,130.21s43.11.66,50.43,6.31l3,5.98s-43.79-8.64-53.43-12.3Z"/>
    <path class="cls-1" d="M93.85,240.81s20.65,73.02,11.67,83.24"/>
    <path class="cls-1" d="M188.75,248.98s-13.44,65.34-5.79,78.97"/>
    <path class="cls-1" d="M247.61,324.05c1.23.58,2.47,1.14,3.72,1.69,6.74,2.95,13.78,5.38,21.03,7.03"/>
    <path class="cls-1" d="M215.21,303.93c4.29,3.3,8.94,6.61,13.88,9.78"/>
    <path class="cls-1" d="M184.16,275.09s10.88,12.87,28.3,26.7"/>
    <path class="cls-2" d="M46.98,304.95c-11.68,2.45-21.44,3.88-21.44,3.88,0,0-21.06,2.01-24.55,8.99"/>
    <path class="cls-2" d="M75.03,297.15c-2.14.86-4.5,1.68-6.99,2.47"/>
    <path class="cls-2" d="M101.29,270.44s-6.64,12.09-17.32,21.76"/>
  </g>
</svg>